<svg xmlns="http://www.w3.org/2000/svg" width="900" height="260" viewBox="0 0 900 260">
  <defs>
    <radialGradient id="glow" cx="50%" cy="50%" r="55%">
      <stop offset="0%" stop-color="#3d0000" stop-opacity="0.5"/>
      <stop offset="100%" stop-color="#0d1117" stop-opacity="0"/>
    </radialGradient>
  </defs>
  <style>
    .ascii {
      font-family: 'Courier New', Courier, monospace;
      font-size: 15px;
      fill: #cc1111;
      animation: pulse 2.5s ease-in-out infinite;
    }
    @keyframes pulse {
      0%,100% { fill: #8b0000; opacity: 0.85; }
      50%      { fill: #ff4444; opacity: 1; }
    }
  </style>

  <rect width="900" height="260" fill="#0d1117"/>
  <rect width="900" height="260" fill="url(#glow)"/>

  <!-- BRENO — 43 chars, step=9px, start=257 -->
  <text class="ascii" y="40"  x="257 266 275 284 293 302 311 320 329 338 347 356 365 374 383 392 401 410 419 428 437 446 455 464 473 482 491 500 509 518 527 536 545 554 563 572 581 590 599 608 617 626 635">██████╗ ██████╗ ███████╗███╗   ██╗ ██████╗ </text>
  <text class="ascii" y="57"  x="257 266 275 284 293 302 311 320 329 338 347 356 365 374 383 392 401 410 419 428 437 446 455 464 473 482 491 500 509 518 527 536 545 554 563 572 581 590 599 608 617 626 635">██╔══██╗██╔══██╗██╔════╝████╗  ██║██╔═══██╗</text>
  <text class="ascii" y="74"  x="257 266 275 284 293 302 311 320 329 338 347 356 365 374 383 392 401 410 419 428 437 446 455 464 473 482 491 500 509 518 527 536 545 554 563 572 581 590 599 608 617 626 635">██████╔╝██████╔╝█████╗  ██╔██╗ ██║██║   ██║</text>
  <text class="ascii" y="91"  x="257 266 275 284 293 302 311 320 329 338 347 356 365 374 383 392 401 410 419 428 437 446 455 464 473 482 491 500 509 518 527 536 545 554 563 572 581 590 599 608 617 626 635">██╔══██╗██╔══██╗██╔══╝  ██║╚██╗██║██║   ██║</text>
  <text class="ascii" y="108" x="257 266 275 284 293 302 311 320 329 338 347 356 365 374 383 392 401 410 419 428 437 446 455 464 473 482 491 500 509 518 527 536 545 554 563 572 581 590 599 608 617 626 635">██████╔╝██║  ██║███████╗██║ ╚████║╚██████╔╝</text>
  <text class="ascii" y="125" x="257 266 275 284 293 302 311 320 329 338 347 356 365 374 383 392 401 410 419 428 437 446 455 464 473 482 491 500 509 518 527 536 545 554 563 572 581 590 599 608 617 626 635">╚═════╝ ╚═╝  ╚═╝╚══════╝╚═╝  ╚═══╝ ╚═════╝ </text>

  <!-- AVEIRO — 45 chars, step=9px, start=248 -->
  <text class="ascii" y="155" x="248 257 266 275 284 293 302 311 320 329 338 347 356 365 374 383 392 401 410 419 428 437 446 455 464 473 482 491 500 509 518 527 536 545 554 563 572 581 590 599 608 617 626 635 644"> █████╗ ██╗   ██╗███████╗██╗██████╗  ██████╗ </text>
  <text class="ascii" y="172" x="248 257 266 275 284 293 302 311 320 329 338 347 356 365 374 383 392 401 410 419 428 437 446 455 464 473 482 491 500 509 518 527 536 545 554 563 572 581 590 599 608 617 626 635 644">██╔══██╗██║   ██║██╔════╝██║██╔══██╗██╔═══██╗</text>
  <text class="ascii" y="189" x="248 257 266 275 284 293 302 311 320 329 338 347 356 365 374 383 392 401 410 419 428 437 446 455 464 473 482 491 500 509 518 527 536 545 554 563 572 581 590 599 608 617 626 635 644">███████║██║   ██║█████╗  ██║██████╔╝██║   ██║</text>
  <text class="ascii" y="206" x="248 257 266 275 284 293 302 311 320 329 338 347 356 365 374 383 392 401 410 419 428 437 446 455 464 473 482 491 500 509 518 527 536 545 554 563 572 581 590 599 608 617 626 635 644">██╔══██║╚██╗ ██╔╝██╔══╝  ██║██╔══██╗██║   ██║</text>
  <text class="ascii" y="223" x="248 257 266 275 284 293 302 311 320 329 338 347 356 365 374 383 392 401 410 419 428 437 446 455 464 473 482 491 500 509 518 527 536 545 554 563 572 581 590 599 608 617 626 635 644">██║  ██║ ╚████╔╝ ███████╗██║██║  ██║╚██████╔╝</text>
  <text class="ascii" y="240" x="248 257 266 275 284 293 302 311 320 329 338 347 356 365 374 383 392 401 410 419 428 437 446 455 464 473 482 491 500 509 518 527 536 545 554 563 572 581 590 599 608 617 626 635 644">╚═╝  ╚═╝  ╚═══╝  ╚══════╝╚═╝╚═╝  ╚═╝ ╚═════╝ </text>

</svg>
