<svg xmlns="http://www.w3.org/2000/svg" width="900" height="315" viewBox="0 0 900 315">
  <defs>
    <radialGradient id="glow" cx="50%" cy="50%" r="55%">
      <stop offset="0%" stop-color="#3d0000" stop-opacity="0.5"/>
      <stop offset="100%" stop-color="#0d1117" stop-opacity="0"/>
    </radialGradient>
  </defs>
  <style>
    .ascii {
      font-family: 'Courier New', Courier, monospace;
      font-size: 17px;
      fill: #cc1111;
      animation: pulse 2.5s ease-in-out infinite;
    }
    @keyframes pulse {
      0%,100% { fill: #8b0000; opacity: 0.85; }
      50%      { fill: #ff4444; opacity: 1; }
    }
  </style>

  <rect width="900" height="315" fill="#0d1117"/>
  <rect width="900" height="315" fill="url(#glow)"/>

  <!-- BRENO ‚ÄĒ apenas ‚Ėą e espa√ßo, 30 chars/linha, x expl√≠cito step=10, start=300 -->
  <text class="ascii" y="35"  x="300 310 320 330 340 350 360 370 380 390 400 410 420 430 440 450 460 470 480 490 500 510 520 530 540 550 560 570 580 590">‚Ėą‚Ėą‚Ėą‚Ėą  ‚Ėą‚Ėą‚Ėą‚Ėą  ‚Ėą‚Ėą‚Ėą‚Ėą‚Ėą ‚Ėą   ‚Ėą  ‚Ėą‚Ėą‚Ėą  </text>
  <text class="ascii" y="53"  x="300 310 320 330 340 350 360 370 380 390 400 410 420 430 440 450 460 470 480 490 500 510 520 530 540 550 560 570 580 590">‚Ėą  ‚Ėą  ‚Ėą   ‚Ėą ‚Ėą     ‚Ėą‚Ėą  ‚Ėą ‚Ėą   ‚Ėą </text>
  <text class="ascii" y="71"  x="300 310 320 330 340 350 360 370 380 390 400 410 420 430 440 450 460 470 480 490 500 510 520 530 540 550 560 570 580 590">‚Ėą  ‚Ėą  ‚Ėą   ‚Ėą ‚Ėą     ‚Ėą ‚Ėą ‚Ėą ‚Ėą   ‚Ėą </text>
  <text class="ascii" y="89"  x="300 310 320 330 340 350 360 370 380 390 400 410 420 430 440 450 460 470 480 490 500 510 520 530 540 550 560 570 580 590">‚Ėą‚Ėą‚Ėą‚Ėą  ‚Ėą‚Ėą‚Ėą‚Ėą  ‚Ėą‚Ėą‚Ėą‚Ėą  ‚Ėą  ‚Ėą‚Ėą ‚Ėą   ‚Ėą </text>
  <text class="ascii" y="107" x="300 310 320 330 340 350 360 370 380 390 400 410 420 430 440 450 460 470 480 490 500 510 520 530 540 550 560 570 580 590">‚Ėą   ‚Ėą ‚Ėą‚Ėą    ‚Ėą     ‚Ėą   ‚Ėą ‚Ėą   ‚Ėą </text>
  <text class="ascii" y="125" x="300 310 320 330 340 350 360 370 380 390 400 410 420 430 440 450 460 470 480 490 500 510 520 530 540 550 560 570 580 590">‚Ėą   ‚Ėą ‚Ėą ‚Ėą   ‚Ėą     ‚Ėą   ‚Ėą ‚Ėą   ‚Ėą </text>
  <text class="ascii" y="143" x="300 310 320 330 340 350 360 370 380 390 400 410 420 430 440 450 460 470 480 490 500 510 520 530 540 550 560 570 580 590">‚Ėą‚Ėą‚Ėą‚Ėą  ‚Ėą  ‚Ėą  ‚Ėą‚Ėą‚Ėą‚Ėą‚Ėą ‚Ėą   ‚Ėą  ‚Ėą‚Ėą‚Ėą  </text>

  <!-- AVEIRO ‚ÄĒ 36 chars/linha, x expl√≠cito step=10, start=270 -->
  <text class="ascii" y="178" x="270 280 290 300 310 320 330 340 350 360 370 380 390 400 410 420 430 440 450 460 470 480 490 500 510 520 530 540 550 560 570 580 590 600 610 620"> ‚Ėą‚Ėą‚Ėą  ‚Ėą   ‚Ėą ‚Ėą‚Ėą‚Ėą‚Ėą‚Ėą ‚Ėą‚Ėą‚Ėą‚Ėą‚Ėą ‚Ėą‚Ėą‚Ėą‚Ėą   ‚Ėą‚Ėą‚Ėą  </text>
  <text class="ascii" y="196" x="270 280 290 300 310 320 330 340 350 360 370 380 390 400 410 420 430 440 450 460 470 480 490 500 510 520 530 540 550 560 570 580 590 600 610 620">‚Ėą   ‚Ėą ‚Ėą   ‚Ėą ‚Ėą       ‚Ėą   ‚Ėą   ‚Ėą ‚Ėą   ‚Ėą </text>
  <text class="ascii" y="214" x="270 280 290 300 310 320 330 340 350 360 370 380 390 400 410 420 430 440 450 460 470 480 490 500 510 520 530 540 550 560 570 580 590 600 610 620">‚Ėą   ‚Ėą ‚Ėą   ‚Ėą ‚Ėą       ‚Ėą   ‚Ėą   ‚Ėą ‚Ėą   ‚Ėą </text>
  <text class="ascii" y="232" x="270 280 290 300 310 320 330 340 350 360 370 380 390 400 410 420 430 440 450 460 470 480 490 500 510 520 530 540 550 560 570 580 590 600 610 620">‚Ėą‚Ėą‚Ėą‚Ėą‚Ėą  ‚Ėą ‚Ėą  ‚Ėą‚Ėą‚Ėą‚Ėą    ‚Ėą   ‚Ėą‚Ėą‚Ėą‚Ėą  ‚Ėą   ‚Ėą </text>
  <text class="ascii" y="250" x="270 280 290 300 310 320 330 340 350 360 370 380 390 400 410 420 430 440 450 460 470 480 490 500 510 520 530 540 550 560 570 580 590 600 610 620">‚Ėą   ‚Ėą  ‚Ėą ‚Ėą  ‚Ėą       ‚Ėą   ‚Ėą‚Ėą    ‚Ėą   ‚Ėą </text>
  <text class="ascii" y="268" x="270 280 290 300 310 320 330 340 350 360 370 380 390 400 410 420 430 440 450 460 470 480 490 500 510 520 530 540 550 560 570 580 590 600 610 620">‚Ėą   ‚Ėą   ‚Ėą   ‚Ėą       ‚Ėą   ‚Ėą ‚Ėą   ‚Ėą   ‚Ėą </text>
  <text class="ascii" y="286" x="270 280 290 300 310 320 330 340 350 360 370 380 390 400 410 420 430 440 450 460 470 480 490 500 510 520 530 540 550 560 570 580 590 600 610 620">‚Ėą   ‚Ėą   ‚Ėą   ‚Ėą‚Ėą‚Ėą‚Ėą‚Ėą ‚Ėą‚Ėą‚Ėą‚Ėą‚Ėą ‚Ėą  ‚Ėą   ‚Ėą‚Ėą‚Ėą  </text>

</svg>
