<svg xmlns="http://www.w3.org/2000/svg" width="900" height="270" viewBox="0 0 900 270">
  <defs>
    <radialGradient id="glow" cx="50%" cy="50%" r="55%">
      <stop offset="0%" stop-color="#3d0000" stop-opacity="0.5"/>
      <stop offset="100%" stop-color="#0d1117" stop-opacity="0"/>
    </radialGradient>
  </defs>
  <style>
    .ascii {
      font-family: 'Courier New', Courier, monospace;
      font-size: 13px;
      fill: #cc1111;
      animation: pulse 2.5s ease-in-out infinite;
    }
    @keyframes pulse {
      0%,100% { fill: #8b0000; opacity: 0.85; }
      50%      { fill: #ff4444; opacity: 1; }
    }
  </style>

  <rect width="900" height="270" fill="#0d1117"/>
  <rect width="900" height="270" fill="url(#glow)"/>

  <!-- BRENO — x explícito por caractere, 43 chars, step=8, start=278 -->
  <text class="ascii" y="45"  x="278 286 294 302 310 318 326 334 342 350 358 366 374 382 390 398 406 414 422 430 438 446 454 462 470 478 486 494 502 510 518 526 534 542 550 558 566 574 582 590 598 606 614">██████╗ ██████╗ ███████╗███╗   ██╗ ██████╗ </text>
  <text class="ascii" y="62"  x="278 286 294 302 310 318 326 334 342 350 358 366 374 382 390 398 406 414 422 430 438 446 454 462 470 478 486 494 502 510 518 526 534 542 550 558 566 574 582 590 598 606 614">██╔══██╗██╔══██╗██╔════╝████╗  ██║██╔═══██╗</text>
  <text class="ascii" y="79"  x="278 286 294 302 310 318 326 334 342 350 358 366 374 382 390 398 406 414 422 430 438 446 454 462 470 478 486 494 502 510 518 526 534 542 550 558 566 574 582 590 598 606 614">██████╔╝██████╔╝█████╗  ██╔██╗ ██║██║   ██║</text>
  <text class="ascii" y="96"  x="278 286 294 302 310 318 326 334 342 350 358 366 374 382 390 398 406 414 422 430 438 446 454 462 470 478 486 494 502 510 518 526 534 542 550 558 566 574 582 590 598 606 614">██╔══██╗██╔══██╗██╔══╝  ██║╚██╗██║██║   ██║</text>
  <text class="ascii" y="113" x="278 286 294 302 310 318 326 334 342 350 358 366 374 382 390 398 406 414 422 430 438 446 454 462 470 478 486 494 502 510 518 526 534 542 550 558 566 574 582 590 598 606 614">██████╔╝██║  ██║███████╗██║ ╚████║╚██████╔╝</text>
  <text class="ascii" y="130" x="278 286 294 302 310 318 326 334 342 350 358 366 374 382 390 398 406 414 422 430 438 446 454 462 470 478 486 494 502 510 518 526 534 542 550 558 566 574 582 590 598 606 614">╚═════╝ ╚═╝  ╚═╝╚══════╝╚═╝  ╚═══╝ ╚═════╝ </text>

  <!-- AVEIRO — x explícito por caractere, 45 chars, step=8, start=270 -->
  <text class="ascii" y="160" x="270 278 286 294 302 310 318 326 334 342 350 358 366 374 382 390 398 406 414 422 430 438 446 454 462 470 478 486 494 502 510 518 526 534 542 550 558 566 574 582 590 598 606 614 622"> █████╗ ██╗   ██╗███████╗██╗██████╗  ██████╗ </text>
  <text class="ascii" y="177" x="270 278 286 294 302 310 318 326 334 342 350 358 366 374 382 390 398 406 414 422 430 438 446 454 462 470 478 486 494 502 510 518 526 534 542 550 558 566 574 582 590 598 606 614 622">██╔══██╗██║   ██║██╔════╝██║██╔══██╗██╔═══██╗</text>
  <text class="ascii" y="194" x="270 278 286 294 302 310 318 326 334 342 350 358 366 374 382 390 398 406 414 422 430 438 446 454 462 470 478 486 494 502 510 518 526 534 542 550 558 566 574 582 590 598 606 614 622">███████║██║   ██║█████╗  ██║██████╔╝██║   ██║</text>
  <text class="ascii" y="211" x="270 278 286 294 302 310 318 326 334 342 350 358 366 374 382 390 398 406 414 422 430 438 446 454 462 470 478 486 494 502 510 518 526 534 542 550 558 566 574 582 590 598 606 614 622">██╔══██║╚██╗ ██╔╝██╔══╝  ██║██╔══██╗██║   ██║</text>
  <text class="ascii" y="228" x="270 278 286 294 302 310 318 326 334 342 350 358 366 374 382 390 398 406 414 422 430 438 446 454 462 470 478 486 494 502 510 518 526 534 542 550 558 566 574 582 590 598 606 614 622">██║  ██║ ╚████╔╝ ███████╗██║██║  ██║╚██████╔╝</text>
  <text class="ascii" y="245" x="270 278 286 294 302 310 318 326 334 342 350 358 366 374 382 390 398 406 414 422 430 438 446 454 462 470 478 486 494 502 510 518 526 534 542 550 558 566 574 582 590 598 606 614 622">╚═╝  ╚═╝  ╚═══╝  ╚══════╝╚═╝╚═╝  ╚═╝ ╚═════╝ </text>

</svg>
